<svg fill="none" height="250" viewBox="0 0 576 250" width="576" xmlns="http://www.w3.org/2000/svg"><path d="m0 0h576v250h-576z" fill="#000"/><g fill="#fff"><path d="m164.573 92.4539 3.067 5.3267c.613 1.1021.613 2.4494 0 3.5514l-18.278 31.654 8.648 14.939c1.35 2.327 3.864 3.796 6.563 3.796 2.698 0 5.213-1.469 6.563-3.796l8.647-14.939-2.269-4.041-9.813 16.96c-.613 1.102-1.84 1.775-3.067 1.775-1.288 0-2.453-.673-3.066-1.775l-7.544-12.919 16.989-29.389 3.067 5.327c.613 1.102.613 2.449 0 3.551l-11.838 20.511 2.331 4.041 12.88-22.287 8.464 14.633c1.288 2.266 1.288 5.021 0 7.286l-8.587 14.878c-1.288 2.266-5.397 7.348-12.757 7.348s-11.408-5.082-12.757-7.348l-8.587-14.878c-1.288-2.265-1.288-5.02 0-7.286z"/><path d="m204.501 108.31h5.949v35.083h-5.949z"/><path d="m218.423 114.74c1.931 0 3.496-1.563 3.496-3.49s-1.565-3.49-3.496-3.49-3.496 1.563-3.496 3.49 1.565 3.49 3.496 3.49z"/><path d="m215.418 119.025h6.011v24.368h-6.011zm21.773-.612c-6.807 0-12.327 4.776-12.327 12.368s4.784 12.245 12.389 12.245c3.005 0 6.195 1.531 6.195 4.898 0 3.368-2.699 5.266-6.195 5.266s-6.379-2.082-6.379-5.266h-6.01c0 6.552 5.274 10.899 12.389 10.899 7.053 0 12.205-4.164 12.205-10.899 0-3.122-.981-6.061-5.029-8.082 3.987-1.836 5.152-6.061 5.152-9.122 0-7.531-5.582-12.307-12.39-12.307zm.062 19.654c-3.496 0-6.379-3-6.379-7.286 0-4.225 2.883-7.347 6.379-7.347s6.317 3.183 6.317 7.347c0 4.224-2.883 7.286-6.317 7.286zm29.746-19.654c-2.76 0-5.397.857-7.605 3.613v-13.776h-6.011v35.082h6.011v-12.367c0-3.613 2.453-6.613 6.011-6.613 3.189 0 5.52 1.898 5.52 6.306v12.674h6.01v-13.102c.062-7.164-3.005-11.817-9.936-11.817zm24.595 20.817c-.736 0-1.349-.245-1.718-.735-.367-.489-.552-1.224-.552-2.326v-12.001h4.846l.552-5.204h-5.336v-6.674l-6.072.674v6.061h-4.6v5.205h4.6v12.122c0 2.511.613 4.409 1.779 5.695 1.165 1.285 2.944 1.959 5.213 1.959 1.042 0 2.024-.123 3.066-.429 1.043-.306 1.963-.735 2.761-1.286l-2.086-3.857c-.797.551-1.656.796-2.453.796zm24.717-8.939c-2.453-1.531-5.336-1.714-8.157-1.898-1.656-.122-4.171-.49-4.171-2.633 0-1.53 1.595-2.388 4.477-2.388 2.331 0 4.355.551 6.072 2.143l3.374-3.918c-2.822-2.449-5.704-3.184-9.568-3.184-4.478 0-10.366 1.959-10.366 7.592 0 2.327 1.227 4.47 3.251 5.694 2.269 1.409 5.213 1.592 7.728 1.898 1.717.184 4.539.613 4.048 3-.307 1.654-2.331 2.143-3.741 2.205-1.534.061-3.067-.062-4.6-.429-1.595-.429-2.883-1.163-4.294-2.082l-3.066 3.857c.184.123.368.307.368.307 3.925 3.245 9.384 4.286 14.352 3.183 3.741-.857 6.93-3.551 6.93-7.592.123-2.265-.613-4.53-2.637-5.755zm19.81-11.878c-2.76 0-6.009 1.163-7.911 3.857l-.184-3.306h-5.827v35.083l6.011-.674v-12.857c1.717 2.633 5.458 3.49 8.033 3.49 7.79 0 12.329-5.817 12.329-12.858 0-7.163-4.968-12.735-12.451-12.735zm-.49 20.389c-4.109 0-6.869-3.735-6.869-7.531s2.575-7.837 6.869-7.837c4.355 0 6.87 4.102 6.87 7.837.06 3.796-2.762 7.531-6.87 7.531zm20.792-5.45c.674 2.878 3.311 5.388 7.606 5.388 2.208 0 5.15-1.102 6.562-2.51l3.863 3.796c-2.575 2.633-6.807 3.919-10.488 3.919-7.605 0-13.125-5.021-13.125-12.797 0-7.347 5.704-12.735 12.696-12.735 7.361 0 13.493 5.021 12.881 14.939zm14.168-4.592c-.676-2.877-3.558-5.388-7.054-5.388-3.251 0-6.256 2.205-7.114 5.388zm13.677 4.592c.674 2.878 3.312 5.388 7.606 5.388 2.206 0 5.151-1.102 6.563-2.51l3.863 3.796c-2.576 2.633-6.808 3.919-10.488 3.919-7.606 0-13.126-5.021-13.126-12.797 0-7.347 5.705-12.735 12.697-12.735 7.359 0 13.492 5.021 12.88 14.939zm14.229-4.592c-.674-2.877-3.556-5.388-7.052-5.388-3.251 0-6.258 2.205-7.116 5.388zm20.302 15.246c2.76 0 6.009-1.164 7.911-3.858l.184 3.245h5.827v-35.082h-6.011v13.592c-1.717-2.633-5.52-3.429-8.096-3.429-7.79 0-12.267 5.756-12.267 12.858s4.969 12.674 12.452 12.674zm.429-20.389c4.11 0 6.87 3.735 6.87 7.531s-2.578 7.837-6.87 7.837c-4.354 0-6.87-4.102-6.87-7.837 0-3.796 2.76-7.531 6.87-7.531z"/></g></svg>